<svg xmlns="http://www.w3.org/2000/svg" width="640" height="640" viewBox="0 0 640 640" fill="none">
  <defs>
    <linearGradient id="bg" x1="48" y1="48" x2="592" y2="592" gradientUnits="userSpaceOnUse">
      <stop stop-color="#FFD9B3"/>
      <stop offset="0.45" stop-color="#BBD7FF"/>
      <stop offset="1" stop-color="#9BC2FF"/>
    </linearGradient>
    <radialGradient id="glowA" cx="0" cy="0" r="1" gradientUnits="userSpaceOnUse" gradientTransform="translate(145 130) rotate(29.5) scale(210 150)">
      <stop stop-color="#FFF2D9" stop-opacity="0.95"/>
      <stop offset="1" stop-color="#FFF2D9" stop-opacity="0"/>
    </radialGradient>
    <radialGradient id="glowB" cx="0" cy="0" r="1" gradientUnits="userSpaceOnUse" gradientTransform="translate(520 210) rotate(140) scale(260 170)">
      <stop stop-color="#F7FBFF" stop-opacity="0.85"/>
      <stop offset="1" stop-color="#F7FBFF" stop-opacity="0"/>
    </radialGradient>
    <linearGradient id="floor" x1="320" y1="430" x2="320" y2="620" gradientUnits="userSpaceOnUse">
      <stop stop-color="#DFAF87"/>
      <stop offset="1" stop-color="#C2875E"/>
    </linearGradient>
    <linearGradient id="metal" x1="250" y1="182" x2="390" y2="452" gradientUnits="userSpaceOnUse">
      <stop stop-color="#F8FAFF"/>
      <stop offset="1" stop-color="#D8E4F8"/>
    </linearGradient>
    <linearGradient id="visor" x1="258" y1="252" x2="382" y2="326" gradientUnits="userSpaceOnUse">
      <stop stop-color="#3A76FF"/>
      <stop offset="1" stop-color="#1E4FD9"/>
    </linearGradient>
    <linearGradient id="suit" x1="244" y1="370" x2="396" y2="546" gradientUnits="userSpaceOnUse">
      <stop stop-color="#3E79FF"/>
      <stop offset="1" stop-color="#2350CC"/>
    </linearGradient>
    <filter id="blur12" x="0" y="0" width="640" height="640" filterUnits="userSpaceOnUse" color-interpolation-filters="sRGB">
      <feGaussianBlur stdDeviation="8"/>
    </filter>
    <filter id="softShadow" x="186" y="162" width="284" height="420" filterUnits="userSpaceOnUse" color-interpolation-filters="sRGB">
      <feDropShadow dx="0" dy="12" stdDeviation="12" flood-color="#2A4E94" flood-opacity="0.28"/>
    </filter>
  </defs>

  <rect width="640" height="640" rx="120" fill="url(#bg)"/>
  <rect width="640" height="640" rx="120" fill="url(#glowA)"/>
  <rect width="640" height="640" rx="120" fill="url(#glowB)"/>

  <g opacity="0.22">
    <rect x="56" y="52" width="180" height="24" rx="12" fill="#FFEED8"/>
    <rect x="410" y="72" width="168" height="22" rx="11" fill="#EDF5FF"/>
  </g>

  <rect x="0" y="438" width="640" height="202" fill="url(#floor)"/>
  <g opacity="0.18" filter="url(#blur12)">
    <ellipse cx="120" cy="496" rx="72" ry="42" fill="#264A84"/>
    <ellipse cx="526" cy="498" rx="86" ry="48" fill="#24477B"/>
  </g>

  <g opacity="0.35">
    <rect x="52" y="318" width="56" height="128" rx="16" fill="#8EA2C5"/>
    <rect x="96" y="402" width="126" height="22" rx="11" fill="#8EA2C5"/>
    <circle cx="102" cy="413" r="20" fill="#6F86AD"/>
    <circle cx="214" cy="413" r="20" fill="#6F86AD"/>

    <rect x="506" y="300" width="56" height="146" rx="16" fill="#92A8CB"/>
    <rect x="412" y="398" width="126" height="22" rx="11" fill="#92A8CB"/>
    <circle cx="408" cy="409" r="20" fill="#6E86AE"/>
    <circle cx="522" cy="409" r="20" fill="#6E86AE"/>
  </g>

  <g filter="url(#softShadow)">
    <ellipse cx="320" cy="546" rx="112" ry="28" fill="#4E6FA6" opacity="0.35"/>

    <rect x="256" y="168" width="128" height="36" rx="18" fill="#A8BCE2"/>
    <rect x="306" y="132" width="28" height="42" rx="14" fill="#8DA9DA"/>
    <circle cx="320" cy="122" r="16" fill="#2F62E5"/>

    <rect x="226" y="188" width="188" height="214" rx="70" fill="url(#metal)" stroke="#B9C9E5" stroke-width="8"/>

    <rect x="250" y="246" width="140" height="88" rx="42" fill="url(#visor)"/>
    <circle cx="286" cy="290" r="16" fill="#FFFFFF"/>
    <circle cx="354" cy="290" r="16" fill="#FFFFFF"/>
    <circle cx="286" cy="290" r="6" fill="#D9E6FF"/>
    <circle cx="354" cy="290" r="6" fill="#D9E6FF"/>

    <rect x="287" y="346" width="66" height="12" rx="6" fill="#89A4D9"/>

    <rect x="244" y="380" width="152" height="162" rx="44" fill="url(#suit)"/>
    <rect x="240" y="398" width="38" height="120" rx="19" fill="#2D5ED9"/>
    <rect x="362" y="398" width="38" height="120" rx="19" fill="#2D5ED9"/>

    <rect x="292" y="412" width="56" height="56" rx="18" fill="#6FA0FF" opacity="0.9"/>
    <path d="M306 437h28" stroke="#E9F2FF" stroke-width="8" stroke-linecap="round"/>
    <path d="M320 423v28" stroke="#E9F2FF" stroke-width="8" stroke-linecap="round"/>
  </g>

  <g opacity="0.26">
    <path d="M58 358c74-18 140-6 200 24" stroke="#FDF4E9" stroke-width="14" stroke-linecap="round"/>
    <path d="M446 370c50-24 96-28 136-24" stroke="#EFF6FF" stroke-width="12" stroke-linecap="round"/>
  </g>
</svg>
